PathFileType	4	(X/Y/Z)	D:\TRACE\v60_Jaco2_6-2-23\BothDRS_Motion3_9-platform.trc
DataRate	CameraRate	NumFrames	NumMarkers	Units	OrigDataRate	OrigDataStartFrame	OrigNumFrames
100.00	100.00	      47	5	mm	100.00	4376	      7000
Frame#	Time	Left_Front			Right_Front			Left_Aft			Right_Aft			Post			
		X1	Y1	Z1	X2	Y2	Z2	X3	Y3	Z3	X4	Y4	Z4	X5	Y5	Z5	

4376	43.750	-763.78192	-48.30661	-661.98035	807.21606	-49.58870	-639.57983	-694.21210	50.48943	470.33664	720.07556	54.88654	573.06763	32.60822	1216.87354	-1085.49670	
4377	43.760	-763.54895	-48.05950	-662.11578	807.39398	-49.47372	-639.57855	-693.80420	50.25695	470.35452	720.41687	54.72704	573.13574	32.72664	1216.96375	-1085.23828	
4378	43.770	-763.32349	-48.05183	-662.10645	807.55554	-49.20787	-639.53723	-693.52972	50.00376	470.40985	720.62268	54.55526	573.22534	32.65441	1217.12842	-1084.93164	
4379	43.780	-763.05658	-47.84344	-662.01465	807.75024	-49.13118	-639.57422	-693.34064	49.82572	470.42593	720.60999	54.33708	573.26007	33.06791	1217.36560	-1084.88428	
4380	43.790	-762.69391	-47.51017	-661.93365	807.97144	-49.08803	-639.54492	-693.41699	49.78979	470.39993	720.74670	54.22865	573.31177	33.60658	1218.21814	-1084.95544	
4381	43.800	-762.46185	-47.41019	-661.77063	808.37067	-48.75117	-639.50012	-693.16058	49.76941	470.50400	721.14960	54.21420	573.36243	33.75298	1218.64307	-1084.65271	
4382	43.810	-762.26654	-47.28412	-661.57397	808.53198	-48.55949	-639.50104	-692.84174	49.69016	470.57028	721.54944	54.13993	573.43634	34.16616	1218.80212	-1084.12683	
4383	43.820	-762.02014	-47.03894	-661.53058	808.84283	-48.41435	-639.45410	-692.55316	49.49589	470.66190	721.86365	53.86978	573.49896	34.26464	1218.92981	-1083.73145	
4384	43.830	-761.84320	-47.09620	-661.55127	809.05463	-48.29792	-639.41602	-692.43085	49.39590	470.74304	722.01721	53.58983	573.51727	34.44773	1219.13123	-1083.43433	
4385	43.840	-761.52509	-46.89768	-661.47943	809.33649	-48.11930	-639.39764	-692.10187	49.21694	470.79425	722.11835	53.47449	573.57184	34.62309	1219.46082	-1083.03357	
4386	43.850	-761.19745	-46.56981	-661.40186	809.60529	-47.69707	-639.34692	-691.87970	49.17525	470.95453	722.64258	53.70718	573.60303	34.81180	1219.90491	-1082.72522	
4387	43.860	-761.01373	-46.36957	-661.39899	809.74481	-47.54003	-639.27954	-691.69641	49.11406	471.01529	722.62427	53.44470	573.85388	35.25983	1220.26379	-1082.01453	
4388	43.870	-760.86389	-46.11908	-661.33099	809.97296	-47.40257	-639.23022	-691.51410	49.05803	471.01556	722.90918	53.17110	573.91986	35.57238	1220.67981	-1081.57666	
4389	43.880	-760.74310	-45.96049	-661.26624	810.16663	-47.21424	-639.17987	-691.32690	48.85627	470.97363	723.22174	52.88641	573.91614	35.41511	1220.92493	-1080.75586	
4390	43.890	-760.14038	-46.16008	-661.32806	810.29852	-46.99877	-639.17938	-691.05487	48.61638	471.13739	723.29425	52.56188	573.93842	35.85269	1221.30347	-1080.79846	
4391	43.900	-759.91101	-46.07232	-661.32587	810.53772	-46.74822	-639.18585	-690.67188	48.35687	471.22733	723.47772	52.37210	573.99579	35.89714	1221.77161	-1080.24072	
4392	43.910	-759.71893	-45.72703	-661.38416	810.85278	-46.59315	-639.21106	-690.33844	48.20122	471.42191	723.78424	52.36664	574.06415	36.39568	1221.95203	-1079.33020	
4393	43.920	-759.71802	-45.18774	-661.45197	811.21790	-46.32040	-639.14099	-690.05817	48.13863	471.49704	724.11072	52.38929	574.16583	36.67705	1222.41150	-1078.61108	
4394	43.930	-759.34021	-45.19808	-661.38489	811.38074	-46.12440	-639.15692	-689.94305	48.06266	471.55219	724.29785	52.14202	574.15155	36.52409	1222.66125	-1078.17126	
4395	43.940	-759.03271	-44.91038	-661.30426	811.50842	-45.96103	-639.15045	-689.74683	47.91312	471.56403	724.36230	51.82241	574.20624	36.68564	1222.90723	-1077.82214	
4396	43.950	-758.82465	-44.53607	-661.23474	811.81122	-45.67752	-638.91992	-689.63092	47.79076	471.65414	724.46301	51.57824	574.28143	37.07373	1223.33240	-1077.73682	
4397	43.960	-758.79858	-44.13184	-661.26257	811.94684	-45.41635	-638.94208	-689.49286	47.67745	471.76459	725.24261	51.67107	574.48505	37.42597	1223.80310	-1077.01404	
4398	43.970	-758.64630	-43.90046	-661.25659	812.31860	-44.96832	-638.78760	-689.33209	47.55186	471.85147	725.10907	51.18631	574.51605	37.67992	1224.32422	-1076.48938	
4399	43.980	-758.43561	-43.67927	-661.32062	812.49829	-44.68281	-638.78528	-688.72736	47.23237	471.99271	725.20746	51.11717	574.54895	37.93608	1224.75879	-1076.09985	
4400	43.990	-758.12268	-43.40171	-661.20941	812.60919	-44.48009	-638.78992	-688.85352	47.05712	472.19699	725.18054	50.76822	574.64001	37.89151	1225.51563	-1075.68481	
4401	44.000	-757.79358	-43.12227	-661.01599	812.69269	-44.21693	-638.74719	-688.61945	46.63556	472.20358	725.47815	50.42911	574.85291	38.18769	1225.88416	-1075.25366	
4402	44.010	-757.50580	-42.86942	-660.84497	812.79993	-43.97615	-638.65814	-688.47272	46.35391	472.23471	725.72223	50.16061	574.95923	38.30421	1226.14636	-1074.93396	
4403	44.020	-757.53778	-42.94352	-661.14313	812.97205	-43.58406	-638.61450	-688.32751	46.19952	472.29010	725.89954	49.95855	575.04138	38.65183	1226.75867	-1074.05078	
4404	44.030	-757.56537	-42.57167	-660.87390	813.11432	-43.21226	-638.55688	-688.10504	46.01443	472.27869	726.07410	49.72931	575.14258	38.70163	1227.63550	-1073.51477	
4405	44.040	-757.31134	-42.09000	-660.70361	813.23364	-42.82116	-638.52679	-688.02332	45.86210	472.38132	726.24146	49.57594	575.26715	38.61864	1227.97791	-1072.79309	
4406	44.050	-757.12964	-41.60572	-660.56616	813.35327	-42.50689	-638.44635	-687.92126	45.63064	472.51434	726.35120	49.28674	575.26465	38.81839	1228.40027	-1072.21753	
4407	44.060	-756.78491	-41.13198	-660.29987	813.59161	-42.11423	-638.40442	-687.77710	45.37393	472.68188	726.67804	49.02183	575.38446	39.08800	1229.23730	-1071.40015	
4408	44.070	-756.84821	-40.37960	-660.37146	813.75275	-41.62769	-638.42273	-687.65680	45.14043	472.85031	726.84369	48.68955	575.47552	39.14297	1229.82275	-1070.44153	
4409	44.080	-756.84296	-40.28568	-660.38300	813.94904	-41.16374	-638.32965	-687.53229	44.91138	472.92548	726.93774	48.25264	575.66687	38.94856	1230.47693	-1069.25037	
4410	44.090	-756.55133	-39.87811	-660.38434	814.02753	-40.81462	-638.20941	-687.43939	44.57687	473.06561	726.90155	47.86436	575.76447	39.23606	1231.36475	-1068.92810	
4411	44.100	-756.37701	-39.51523	-660.27576	814.05457	-40.50193	-638.15192	-687.30969	44.24532	473.20905	726.80444	47.45033	575.93073	39.46515	1231.99426	-1067.60217	
4412	44.110	-756.23688	-38.87052	-660.07819	814.34137	-40.03996	-637.81232	-687.08588	43.87602	473.31750	726.71875	47.10400	576.07001	39.41674	1232.61218	-1066.80591	
4413	44.120	-756.43011	-38.57114	-659.94421	814.37872	-39.62219	-637.81726	-686.92413	43.54156	473.50314	726.78815	46.79358	576.36047	39.35350	1233.48718	-1065.82813	
4414	44.130	-756.46973	-38.09624	-659.72540	814.32556	-38.96383	-637.77246	-686.86633	43.27270	473.44815	726.96301	46.47638	576.50610	39.68710	1234.32214	-1064.48755	
4415	44.140	-756.30939	-37.47412	-659.88116	814.43933	-38.51925	-637.81763	-686.85278	43.16988	473.46442	727.44586	46.14390	576.59607	39.67693	1235.11804	-1063.34009	
4416	44.150	-756.36963	-36.43521	-659.88629	814.51837	-37.99688	-637.71466	-687.09784	42.78983	473.57813	727.45514	45.88605	576.64392	39.54156	1236.00720	-1062.32788	
4417	44.160	-756.00043	-36.20188	-659.76080	814.60443	-37.49162	-637.49847	-687.13214	42.18027	473.83435	727.21252	45.23967	576.79236	39.56919	1236.85217	-1060.93079	
4418	44.170	-756.06860	-35.95728	-659.89813	814.60736	-36.78559	-637.32849	-687.06854	41.68818	474.20322	727.09009	44.72507	576.92578	39.71928	1237.53870	-1059.67017	
4419	44.180	-756.27875	-35.17201	-659.64764	814.57104	-36.41262	-637.30835	-687.20386	41.69423	474.18762	726.96875	44.06725	577.13776	39.27206	1238.84070	-1058.53406	
4420	44.190	-756.24170	-34.41043	-659.43298	814.57379	-35.73971	-637.25232	-687.20667	41.42816	474.45535	727.10364	43.70618	577.25946	39.75825	1239.56213	-1057.22095	
4421	44.200	-756.33044	-33.55910	-659.24829	814.57745	-34.97346	-637.09741	-687.32648	41.17035	474.71545	727.30304	43.31993	577.56281	39.69851	1240.88342	-1055.77246	
4422	44.210	-756.22852	-33.32679	-659.62061	814.74188	-34.25957	-636.94763	-687.20221	40.76324	474.75604	727.49109	42.97178	577.84644	39.53719	1241.90869	-1054.73474	
